<svg width="559" height="240" viewBox="0 0 559 240" fill="none" xmlns="http://www.w3.org/2000/svg">
<g clip-path="url(#clip0_3_3)">
<rect width="559" height="240" fill="white"/>
<circle cx="56" cy="10" r="46" fill="#C4C4C4"/>
<circle cx="8" cy="166" r="46" fill="#C4C4C4"/>
<circle cx="548" cy="228" r="46" fill="#C4C4C4"/>
<circle cx="192" cy="234" r="46" fill="#C4C4C4"/>
<circle cx="559" cy="56" r="46" fill="#C4C4C4"/>
<circle cx="364" cy="188" r="46" fill="#C4C4C4"/>
<circle cx="296" cy="46" r="46" fill="#C4C4C4"/>
<path d="M61.3301 97.4062L69.6973 118.289L78.0645 97.4062H82.4414V123H79.0664V113.033L79.3828 102.275L70.9805 123H68.3965L60.0117 102.328L60.3457 113.033V123H56.9707V97.4062H61.3301ZM91.4238 123H88.1719V103.98H91.4238V123ZM87.9082 98.9355C87.9082 98.4082 88.0664 97.9629 88.3828 97.5996C88.7109 97.2363 89.1914 97.0547 89.8242 97.0547C90.457 97.0547 90.9375 97.2363 91.2656 97.5996C91.5938 97.9629 91.7578 98.4082 91.7578 98.9355C91.7578 99.4629 91.5938 99.9023 91.2656 100.254C90.9375 100.605 90.457 100.781 89.8242 100.781C89.1914 100.781 88.7109 100.605 88.3828 100.254C88.0664 99.9023 87.9082 99.4629 87.9082 98.9355ZM95.8711 113.332C95.8711 110.367 96.5566 108.012 97.9277 106.266C99.2988 104.508 101.115 103.629 103.377 103.629C105.697 103.629 107.508 104.449 108.809 106.09L108.967 103.98H111.938V122.543C111.938 125.004 111.205 126.943 109.74 128.361C108.287 129.779 106.33 130.488 103.869 130.488C102.498 130.488 101.156 130.195 99.8438 129.609C98.5312 129.023 97.5293 128.221 96.8379 127.201L98.5254 125.25C99.9199 126.973 101.625 127.834 103.641 127.834C105.223 127.834 106.453 127.389 107.332 126.498C108.223 125.607 108.668 124.354 108.668 122.736V121.102C107.367 122.602 105.592 123.352 103.342 123.352C101.115 123.352 99.3105 122.455 97.9277 120.662C96.5566 118.869 95.8711 116.426 95.8711 113.332ZM99.1406 113.701C99.1406 115.846 99.5801 117.533 100.459 118.764C101.338 119.982 102.568 120.592 104.15 120.592C106.201 120.592 107.707 119.66 108.668 117.797V109.113C107.672 107.297 106.178 106.389 104.186 106.389C102.604 106.389 101.367 107.004 100.477 108.234C99.5859 109.465 99.1406 111.287 99.1406 113.701ZM128.602 121.119C127.336 122.607 125.479 123.352 123.029 123.352C121.002 123.352 119.455 122.766 118.389 121.594C117.334 120.41 116.801 118.664 116.789 116.355V103.98H120.041V116.268C120.041 119.15 121.213 120.592 123.557 120.592C126.041 120.592 127.693 119.666 128.514 117.814V103.98H131.766V123H128.672L128.602 121.119ZM144.615 123.352C142.037 123.352 139.939 122.508 138.322 120.82C136.705 119.121 135.896 116.854 135.896 114.018V113.42C135.896 111.533 136.254 109.852 136.969 108.375C137.695 106.887 138.703 105.727 139.992 104.895C141.293 104.051 142.699 103.629 144.211 103.629C146.684 103.629 148.605 104.443 149.977 106.072C151.348 107.701 152.033 110.033 152.033 113.068V114.422H139.148C139.195 116.297 139.74 117.814 140.783 118.975C141.838 120.123 143.174 120.697 144.791 120.697C145.939 120.697 146.912 120.463 147.709 119.994C148.506 119.525 149.203 118.904 149.801 118.131L151.787 119.678C150.193 122.127 147.803 123.352 144.615 123.352ZM144.211 106.301C142.898 106.301 141.797 106.781 140.906 107.742C140.016 108.691 139.465 110.027 139.254 111.75H148.781V111.504C148.688 109.852 148.242 108.574 147.445 107.672C146.648 106.758 145.57 106.301 144.211 106.301ZM159.346 123H156.094V96H159.346V123ZM188.139 116.32H177.416L175.008 123H171.527L181.301 97.4062H184.254L194.045 123H190.582L188.139 116.32ZM178.436 113.543H187.137L182.777 101.572L178.436 113.543ZM200.057 103.98L200.162 106.371C201.615 104.543 203.514 103.629 205.857 103.629C209.877 103.629 211.904 105.896 211.939 110.432V123H208.688V110.414C208.676 109.043 208.359 108.029 207.738 107.373C207.129 106.717 206.174 106.389 204.873 106.389C203.818 106.389 202.893 106.67 202.096 107.232C201.299 107.795 200.678 108.533 200.232 109.447V123H196.98V103.98H200.057ZM216.07 113.332C216.07 110.367 216.756 108.012 218.127 106.266C219.498 104.508 221.314 103.629 223.576 103.629C225.896 103.629 227.707 104.449 229.008 106.09L229.166 103.98H232.137V122.543C232.137 125.004 231.404 126.943 229.939 128.361C228.486 129.779 226.529 130.488 224.068 130.488C222.697 130.488 221.355 130.195 220.043 129.609C218.73 129.023 217.729 128.221 217.037 127.201L218.725 125.25C220.119 126.973 221.824 127.834 223.84 127.834C225.422 127.834 226.652 127.389 227.531 126.498C228.422 125.607 228.867 124.354 228.867 122.736V121.102C227.566 122.602 225.791 123.352 223.541 123.352C221.314 123.352 219.51 122.455 218.127 120.662C216.756 118.869 216.07 116.426 216.07 113.332ZM219.34 113.701C219.34 115.846 219.779 117.533 220.658 118.764C221.537 119.982 222.768 120.592 224.35 120.592C226.4 120.592 227.906 119.66 228.867 117.797V109.113C227.871 107.297 226.377 106.389 224.385 106.389C222.803 106.389 221.566 107.004 220.676 108.234C219.785 109.465 219.34 111.287 219.34 113.701ZM244.951 123.352C242.373 123.352 240.275 122.508 238.658 120.82C237.041 119.121 236.232 116.854 236.232 114.018V113.42C236.232 111.533 236.59 109.852 237.305 108.375C238.031 106.887 239.039 105.727 240.328 104.895C241.629 104.051 243.035 103.629 244.547 103.629C247.02 103.629 248.941 104.443 250.312 106.072C251.684 107.701 252.369 110.033 252.369 113.068V114.422H239.484C239.531 116.297 240.076 117.814 241.119 118.975C242.174 120.123 243.51 120.697 245.127 120.697C246.275 120.697 247.248 120.463 248.045 119.994C248.842 119.525 249.539 118.904 250.137 118.131L252.123 119.678C250.529 122.127 248.139 123.352 244.951 123.352ZM244.547 106.301C243.234 106.301 242.133 106.781 241.242 107.742C240.352 108.691 239.801 110.027 239.59 111.75H249.117V111.504C249.023 109.852 248.578 108.574 247.781 107.672C246.984 106.758 245.906 106.301 244.547 106.301ZM259.682 123H256.43V96H259.682V123ZM277.717 112.98V123H274.342V97.4062H283.781C286.582 97.4062 288.773 98.1211 290.355 99.5508C291.949 100.98 292.746 102.873 292.746 105.229C292.746 107.713 291.967 109.629 290.408 110.977C288.861 112.312 286.641 112.98 283.746 112.98H277.717ZM277.717 110.221H283.781C285.586 110.221 286.969 109.799 287.93 108.955C288.891 108.1 289.371 106.869 289.371 105.264C289.371 103.74 288.891 102.521 287.93 101.607C286.969 100.693 285.65 100.219 283.975 100.184H277.717V110.221ZM304.189 123.352C301.611 123.352 299.514 122.508 297.896 120.82C296.279 119.121 295.471 116.854 295.471 114.018V113.42C295.471 111.533 295.828 109.852 296.543 108.375C297.27 106.887 298.277 105.727 299.566 104.895C300.867 104.051 302.273 103.629 303.785 103.629C306.258 103.629 308.18 104.443 309.551 106.072C310.922 107.701 311.607 110.033 311.607 113.068V114.422H298.723C298.77 116.297 299.314 117.814 300.357 118.975C301.412 120.123 302.748 120.697 304.365 120.697C305.514 120.697 306.486 120.463 307.283 119.994C308.08 119.525 308.777 118.904 309.375 118.131L311.361 119.678C309.768 122.127 307.377 123.352 304.189 123.352ZM303.785 106.301C302.473 106.301 301.371 106.781 300.48 107.742C299.59 108.691 299.039 110.027 298.828 111.75H308.355V111.504C308.262 109.852 307.816 108.574 307.02 107.672C306.223 106.758 305.145 106.301 303.785 106.301ZM324.58 106.898C324.088 106.816 323.555 106.775 322.98 106.775C320.848 106.775 319.4 107.684 318.639 109.5V123H315.387V103.98H318.551L318.604 106.178C319.67 104.479 321.182 103.629 323.139 103.629C323.771 103.629 324.252 103.711 324.58 103.875V106.898ZM335.127 123.352C332.549 123.352 330.451 122.508 328.834 120.82C327.217 119.121 326.408 116.854 326.408 114.018V113.42C326.408 111.533 326.766 109.852 327.48 108.375C328.207 106.887 329.215 105.727 330.504 104.895C331.805 104.051 333.211 103.629 334.723 103.629C337.195 103.629 339.117 104.443 340.488 106.072C341.859 107.701 342.545 110.033 342.545 113.068V114.422H329.66C329.707 116.297 330.252 117.814 331.295 118.975C332.35 120.123 333.686 120.697 335.303 120.697C336.451 120.697 337.424 120.463 338.221 119.994C339.018 119.525 339.715 118.904 340.312 118.131L342.299 119.678C340.705 122.127 338.314 123.352 335.127 123.352ZM334.723 106.301C333.41 106.301 332.309 106.781 331.418 107.742C330.527 108.691 329.977 110.027 329.766 111.75H339.293V111.504C339.199 109.852 338.754 108.574 337.957 107.672C337.16 106.758 336.082 106.301 334.723 106.301ZM349.383 120.346H360.51V123H345.41V120.609L355.904 106.67H345.568V103.98H359.982V106.283L349.383 120.346ZM392.449 114.879C392.133 117.586 391.131 119.678 389.443 121.154C387.768 122.619 385.535 123.352 382.746 123.352C379.723 123.352 377.297 122.268 375.469 120.1C373.652 117.932 372.744 115.031 372.744 111.398V108.938C372.744 106.559 373.166 104.467 374.01 102.662C374.865 100.857 376.072 99.4746 377.631 98.5137C379.189 97.541 380.994 97.0547 383.045 97.0547C385.764 97.0547 387.943 97.8164 389.584 99.3398C391.225 100.852 392.18 102.949 392.449 105.633H389.057C388.764 103.594 388.125 102.117 387.141 101.203C386.168 100.289 384.803 99.832 383.045 99.832C380.889 99.832 379.195 100.629 377.965 102.223C376.746 103.816 376.137 106.084 376.137 109.025V111.504C376.137 114.281 376.717 116.49 377.877 118.131C379.037 119.771 380.66 120.592 382.746 120.592C384.621 120.592 386.057 120.17 387.053 119.326C388.061 118.471 388.729 116.988 389.057 114.879H392.449ZM400.096 123H396.844V103.98H400.096V123ZM396.58 98.9355C396.58 98.4082 396.738 97.9629 397.055 97.5996C397.383 97.2363 397.863 97.0547 398.496 97.0547C399.129 97.0547 399.609 97.2363 399.938 97.5996C400.266 97.9629 400.43 98.4082 400.43 98.9355C400.43 99.4629 400.266 99.9023 399.938 100.254C399.609 100.605 399.129 100.781 398.496 100.781C397.863 100.781 397.383 100.605 397.055 100.254C396.738 99.9023 396.58 99.4629 396.58 98.9355ZM406.916 123V106.494H403.91V103.98H406.916V102.029C406.916 99.9902 407.461 98.4141 408.551 97.3008C409.641 96.1875 411.182 95.6309 413.174 95.6309C413.924 95.6309 414.668 95.7305 415.406 95.9297L415.23 98.5664C414.68 98.4609 414.094 98.4082 413.473 98.4082C412.418 98.4082 411.604 98.7188 411.029 99.3398C410.455 99.9492 410.168 100.828 410.168 101.977V103.98H414.229V106.494H410.168V123H406.916ZM429.574 121.119C428.309 122.607 426.451 123.352 424.002 123.352C421.975 123.352 420.428 122.766 419.361 121.594C418.307 120.41 417.773 118.664 417.762 116.355V103.98H421.014V116.268C421.014 119.15 422.186 120.592 424.529 120.592C427.014 120.592 428.666 119.666 429.486 117.814V103.98H432.738V123H429.645L429.574 121.119ZM445.588 123.352C443.01 123.352 440.912 122.508 439.295 120.82C437.678 119.121 436.869 116.854 436.869 114.018V113.42C436.869 111.533 437.227 109.852 437.941 108.375C438.668 106.887 439.676 105.727 440.965 104.895C442.266 104.051 443.672 103.629 445.184 103.629C447.656 103.629 449.578 104.443 450.949 106.072C452.32 107.701 453.006 110.033 453.006 113.068V114.422H440.121C440.168 116.297 440.713 117.814 441.756 118.975C442.811 120.123 444.146 120.697 445.764 120.697C446.912 120.697 447.885 120.463 448.682 119.994C449.479 119.525 450.176 118.904 450.773 118.131L452.76 119.678C451.166 122.127 448.775 123.352 445.588 123.352ZM445.184 106.301C443.871 106.301 442.77 106.781 441.879 107.742C440.988 108.691 440.438 110.027 440.227 111.75H449.754V111.504C449.66 109.852 449.215 108.574 448.418 107.672C447.621 106.758 446.543 106.301 445.184 106.301ZM459.861 103.98L459.967 106.371C461.42 104.543 463.318 103.629 465.662 103.629C469.682 103.629 471.709 105.896 471.744 110.432V123H468.492V110.414C468.48 109.043 468.164 108.029 467.543 107.373C466.934 106.717 465.979 106.389 464.678 106.389C463.623 106.389 462.697 106.67 461.9 107.232C461.104 107.795 460.482 108.533 460.037 109.447V123H456.785V103.98H459.861ZM481.061 99.375V103.98H484.611V106.494H481.061V118.289C481.061 119.051 481.219 119.625 481.535 120.012C481.852 120.387 482.391 120.574 483.152 120.574C483.527 120.574 484.043 120.504 484.699 120.363V123C483.844 123.234 483.012 123.352 482.203 123.352C480.75 123.352 479.654 122.912 478.916 122.033C478.178 121.154 477.809 119.906 477.809 118.289V106.494H474.346V103.98H477.809V99.375H481.061ZM496.318 123.352C493.74 123.352 491.643 122.508 490.025 120.82C488.408 119.121 487.6 116.854 487.6 114.018V113.42C487.6 111.533 487.957 109.852 488.672 108.375C489.398 106.887 490.406 105.727 491.695 104.895C492.996 104.051 494.402 103.629 495.914 103.629C498.387 103.629 500.309 104.443 501.68 106.072C503.051 107.701 503.736 110.033 503.736 113.068V114.422H490.852C490.898 116.297 491.443 117.814 492.486 118.975C493.541 120.123 494.877 120.697 496.494 120.697C497.643 120.697 498.615 120.463 499.412 119.994C500.209 119.525 500.906 118.904 501.504 118.131L503.49 119.678C501.896 122.127 499.506 123.352 496.318 123.352ZM495.914 106.301C494.602 106.301 493.5 106.781 492.609 107.742C491.719 108.691 491.168 110.027 490.957 111.75H500.484V111.504C500.391 109.852 499.945 108.574 499.148 107.672C498.352 106.758 497.273 106.301 495.914 106.301ZM518.59 117.955C518.59 117.076 518.256 116.396 517.588 115.916C516.932 115.424 515.777 115.002 514.125 114.65C512.484 114.299 511.178 113.877 510.205 113.385C509.244 112.893 508.529 112.307 508.061 111.627C507.604 110.947 507.375 110.139 507.375 109.201C507.375 107.643 508.031 106.324 509.344 105.246C510.668 104.168 512.355 103.629 514.406 103.629C516.562 103.629 518.309 104.186 519.645 105.299C520.992 106.412 521.666 107.836 521.666 109.57H518.396C518.396 108.68 518.016 107.912 517.254 107.268C516.504 106.623 515.555 106.301 514.406 106.301C513.223 106.301 512.297 106.559 511.629 107.074C510.961 107.59 510.627 108.264 510.627 109.096C510.627 109.881 510.938 110.473 511.559 110.871C512.18 111.27 513.299 111.65 514.916 112.014C516.545 112.377 517.863 112.811 518.871 113.314C519.879 113.818 520.623 114.428 521.104 115.143C521.596 115.846 521.842 116.707 521.842 117.727C521.842 119.426 521.162 120.791 519.803 121.822C518.443 122.842 516.68 123.352 514.512 123.352C512.988 123.352 511.641 123.082 510.469 122.543C509.297 122.004 508.377 121.254 507.709 120.293C507.053 119.32 506.725 118.271 506.725 117.146H509.977C510.035 118.236 510.469 119.104 511.277 119.748C512.098 120.381 513.176 120.697 514.512 120.697C515.742 120.697 516.727 120.451 517.465 119.959C518.215 119.455 518.59 118.787 518.59 117.955Z" fill="black"/>
</g>
<defs>
<clipPath id="clip0_3_3">
<rect width="559" height="240" fill="white"/>
</clipPath>
</defs>
</svg>
